PathFileType	4	(X/Y/Z)	D:\TRACE\v60_Jaco2_6-2-23\BothDRS_Motion1_7-platform.trc
DataRate	CameraRate	NumFrames	NumMarkers	Units	OrigDataRate	OrigDataStartFrame	OrigNumFrames
100.00	100.00	      24	5	mm	100.00	3751	      7500
Frame#	Time	Left_Front			Right_Front			Left_Aft			Right_Aft			Post			
		X1	Y1	Z1	X2	Y2	Z2	X3	Y3	Z3	X4	Y4	Z4	X5	Y5	Z5	

3751	37.500	-758.55438	24.85135	-635.20520	811.69763	26.27491	-640.26227	-667.17834	-2.79371	499.08926	775.48676	-4.63726	508.85162	27.75241	1331.22766	-925.89520	
3752	37.510	-759.04254	24.23403	-635.40295	811.12311	25.80450	-640.22620	-667.41382	-2.93651	499.33609	775.13989	-4.18312	508.76453	27.28473	1330.69946	-927.44843	
3753	37.520	-759.50323	24.03007	-635.46912	810.39307	25.17283	-640.43262	-667.72479	-2.78256	499.38846	774.75690	-3.79649	508.69147	26.91122	1329.96814	-928.25183	
3754	37.530	-759.79846	23.57834	-635.48474	810.04712	24.79992	-640.61230	-668.11023	-2.63149	499.33542	773.79944	-3.77677	508.40826	26.16222	1329.56360	-930.07782	
3755	37.540	-760.43231	22.97274	-635.56812	809.55414	24.43781	-640.72491	-669.24133	-1.80223	499.41098	773.20245	-3.36607	508.33521	25.77198	1329.02429	-931.23682	
3756	37.550	-761.13293	22.44900	-635.59009	809.11646	24.21112	-640.71191	-669.93347	-1.50270	499.32309	772.73651	-2.95851	508.36243	24.82821	1328.30115	-932.48218	
3757	37.560	-761.82642	22.07579	-635.52069	808.33044	23.63667	-640.80969	-670.52618	-1.30635	499.25470	772.26752	-2.67612	508.10608	24.68213	1327.47717	-933.40143	
3758	37.570	-762.57642	21.65981	-635.70715	807.57147	23.22775	-640.96576	-671.05243	-0.87343	499.15427	771.33527	-2.26135	508.08438	23.73800	1327.08777	-934.04346	
3759	37.580	-762.95630	21.19337	-636.28894	806.99377	22.78229	-641.18011	-671.80188	-0.25745	498.96243	770.79236	-2.20488	507.94348	23.10492	1326.07983	-934.94446	
3760	37.590	-763.59509	20.61963	-636.41754	806.52789	22.32619	-641.33276	-672.45807	0.09039	498.77115	770.23169	-1.86098	507.80737	22.70996	1325.36633	-935.77722	
3761	37.600	-764.21051	20.12858	-636.52765	805.96936	21.74052	-641.57648	-673.36853	0.49482	498.44971	770.04218	-1.06909	507.71356	22.02193	1324.77979	-936.49005	
3762	37.610	-764.80121	19.55359	-636.69452	805.02100	21.16591	-641.85657	-673.75977	0.81044	498.21356	769.16315	-0.91063	507.53796	21.33677	1323.62573	-937.37518	
3763	37.620	-765.62579	18.81217	-636.57361	804.53705	20.72866	-641.75226	-674.41620	1.28855	498.06635	768.43164	-0.32619	507.37421	20.57227	1322.86072	-938.93573	
3764	37.630	-766.45892	18.35539	-636.66760	803.70074	20.05478	-641.77002	-675.15997	1.66619	497.59763	767.74384	-0.06002	507.34863	19.80328	1322.10498	-940.45111	
3765	37.640	-767.04492	17.96221	-636.96643	803.05042	19.56530	-641.98804	-675.93683	2.05985	497.24524	767.06763	0.30254	507.95618	19.13520	1321.44519	-942.29218	
3766	37.650	-767.66193	17.42665	-637.19598	802.51764	19.05676	-642.16614	-676.36371	2.32650	497.37207	766.59259	0.69965	507.65643	18.21099	1320.89868	-943.76343	
3767	37.660	-768.30334	16.89986	-637.10968	801.94275	18.70621	-642.23560	-676.98999	2.45834	497.22238	765.72089	0.86370	507.49429	18.02678	1320.20264	-945.75647	
3768	37.670	-768.80927	16.69653	-637.31738	800.93488	18.25195	-642.54535	-677.79382	2.67975	497.18814	765.25458	1.24709	507.47772	17.35061	1319.80261	-946.62189	
3769	37.680	-769.52051	16.53823	-637.36597	800.21722	17.95154	-642.46002	-678.66541	3.11025	497.05219	763.43726	0.79669	507.62738	16.92324	1319.23633	-947.99268	
3770	37.690	-770.63147	15.98089	-637.44141	799.60583	17.65174	-642.45343	-679.15991	3.45578	496.86966	762.46008	1.46420	507.76773	16.12003	1318.52771	-948.97614	
3771	37.700	-771.33618	15.73865	-637.69226	798.79559	17.22194	-642.65204	-679.30798	2.78976	497.61407	762.05457	1.74919	507.68637	14.83796	1317.92957	-949.70380	
3772	37.710	-772.14105	14.93206	-637.55475	798.04065	16.62895	-642.82758	-680.14648	2.96233	497.46619	762.21875	2.41647	507.11624	14.21060	1317.39575	-949.99731	
3773	37.720	-772.66125	14.35151	-637.63965	797.17542	16.20550	-642.82538	-680.90479	3.32604	497.42795	761.32654	2.69691	507.11868	13.84809	1316.64319	-950.12469	
3774	37.730	-773.31812	14.00481	-637.72974	796.71643	15.82240	-642.67487	-681.44879	3.65478	497.38791	760.73615	3.08600	507.03073	13.02071	1315.82251	-950.52570	
